# xmcd
#
# Track frame offsets: 
#        150
#        16005
#        37227
#        54115
#        68780
#        89477
#        113790
#        127785
#        148625
#        164802
#        180787
#
# Disc length: 2652 seconds
#
# Revision: 3
# Processed by: cddbd v1.5.1PL2 Copyright (c) Steve Scherf et al.
# Submitted via: ExactAudioCopy v0.95b3
#
DISCID=8a0a5a0b
DTITLE=The Mavericks - The Mavericks
DYEAR=2003
DGENRE=Country
TTITLE0=I Want To Know
TTITLE1=In My Dreams
TTITLE2=Shine Your Light
TTITLE3=I'm Wondering
TTITLE4=By The Time
TTITLE5=Would You Believe?
TTITLE6=Too Lonely
TTITLE7=The Mavericks and Willie Nelson - Time Goes By
TTITLE8=San José
TTITLE9=Because Of You
TTITLE10=Air That I Breathe
EXTD=
EXTT0=
EXTT1=
EXTT2=
EXTT3=
EXTT4=
EXTT5=
EXTT6=
EXTT7=
EXTT8=
EXTT9=
EXTT10=
PLAYORDER=
